/* XPM */
static char*config[]={
"24 24 53 1",
"S c #8e8286",
"j c #e7e3e7",
"s c #8e8a8e",
"k c #efebef",
"E c #969296",
". c None",
"l c #f7f3f7",
"r c #9e9a9e",
"h c #f7fbff",
"D c #9ea2a6",
"W c #383038",
"o c #fffbff",
"B c #a6a2a6",
"v c #aeaaae",
"A c #aeb2b6",
"g c #b6b2b6",
"x c #bebabe",
"L c #413841",
"C c #414141",
"c c #494949",
"m c #514949",
"P c #515151",
"G c #8e8a96",
"N c #595959",
"V c #615959",
"R c #616161",
"Q c #080808",
"U c #696161",
"w c #d7d3cf",
"M c #696969",
"a c #101010",
"O c #181010",
"# c #717171",
"f c #181818",
"I c #8e8a86",
"y c #797979",
"e c #202020",
"J c #867979",
"F c #282828",
"Y c #283030",
"q c #303030",
"z c #383838",
"K c #aeaaa6",
"X c #414149",
"H c #bebac7",
"T c #595159",
"u c #c7c3c7",
"p c #cfc3c7",
"i c #cfcbcf",
"t c #d7d3d7",
"b c #716971",
"n c #dfdbdf",
"d c #868286",
"........................",
"........#aabaaaac.......",
"......daaefaaaafa.......",
"....ghiaajklmfaaa.......",
"...gkjnaaoipiaaaaf.qr...",
"....snntiiuuvaaaafaaf...",
".gdaltwipuxxgeayfaaaaz..",
".onotiiuxxgAvBAACaaaaf..",
".ktiiuuxxgvvBDrEEfaaF...",
".BipuxxgAvBBrrEGsdfaa...",
"..aHxggvzFqEEGsIdqaaa#..",
"..CxgAvEeaa#ssdJyaaaaaa.",
".glAvKB#fxaagdyy#aaaaaF.",
".ovvBDrELAFaoy##MNeaOzP.",
".lKBrrEGNaQas#MMRRNqcce.",
".gBrEEsSEqaalMRRNTPqce..",
"..qacsddygoo#RNNPPcFa...",
"....Udyy#bMRRNTPmzefaQ..",
"....u##bMURNNPPcCfaaa...",
"....l#MMRVNPPccCzeaa....",
".....FRNPNPmcCCzWqf.....",
"......#f.zcXCfazYf......",
".........VCLzaaad.......",
"..........WWfU.........."};
