/* XPM */
static char*exit[]={
"24 24 25 1",
". c None",
"k c #9c985a",
"s c #b4ae4a",
"b c #84836a",
"# c #000000",
"u c #bcb545",
"w c #3c0000",
"v c #410000",
"t c #470000",
"r c #4c0000",
"o c #510000",
"l c #570000",
"i c #5c0000",
"f c #620000",
"c c #670000",
"p c #6d0000",
"m c #720000",
"j c #780000",
"g c #7d0000",
"d c #830000",
"a c #880000",
"e c #8c8a65",
"h c #94915f",
"n c #a4a055",
"q c #aca74f",
"........................",
"........................",
"........................",
"...............###......",
"...............###......",
"......#########aa#......",
"......##bbbb##cdd#......",
"......##bbbb##cdd#......",
"......##eeee##fgg#......",
"......##hhhh##ijj#......",
"......##hhhh##ijj#......",
"......##kkkk##lmm#......",
"......##nnnn##opp#......",
"......##nnnn##opp#......",
"......##qqqq##rcc#......",
"......##ssss##tff#......",
"......##ssss##tff#......",
"......##uuuu##vii#......",
"......########wll#......",
"......########wll#......",
"..............#oo#......",
"...............###......",
"...............###......",
"........................"};
