/* XPM */
static char*file[]={
"24 24 7 1",
". c None",
"d c #ab932f",
"e c #9a8223",
"# c #000000",
"a c #ddc556",
"b c #ccb449",
"c c #bca33c",
"........................",
"........................",
"........................",
"........................",
"........................",
"........................",
".................###....",
".................###....",
"........#########aaa#...",
"......##bbbbbbbbbbbb#...",
"......##bbbbbbbbbbbb#...",
"......##cccccccccccc#...",
"...###########dddddd#...",
"...###########dddddd#...",
"..#aaaaaaaaaaa#eeeee#...",
"...##bbbbbbbbbb##eee#...",
"...##bbbbbbbbbb##eee#...",
".....#ccccccccccc#ee#...",
"......##dddddddddd###...",
"......##dddddddddd###...",
"........#############...",
"........................",
"........................",
"........................"};
