/* XPM */
static char *floppy[] = {
/* width height num_colors chars_per_pixel */
"    24    24      178            2",
/* colors */
".. c #040204",
".# c #bcbe04",
".a c #c4c204",
".b c #1c221c",
".c c #24322c",
".d c #64625c",
".e c #3c3634",
".f c #8c827c",
".g c #545a5c",
".h c #e4e2dc",
".i c #a4a6a4",
".j c #44423c",
".k c #243a34",
".l c #e4e204",
".m c #2c2a2c",
".n c #3c4e4c",
".o c #1c2a24",
".p c #3c423c",
".q c #d4d2cc",
".r c #f4f2ec",
".s c #34322c",
".t c #343a34",
".u c #9c928c",
".v c #141614",
".w c #ecea6c",
".x c #d4d204",
".y c #7c7274",
".z c #b4a29c",
".A c #44524c",
".B c #2c322c",
".C c #243a3c",
".D c #f4f204",
".E c #242a24",
".F c #3c4a44",
".G c #dcd6d4",
".H c #1c262c",
".I c #3c3e34",
".J c #eceae4",
".K c #bcbab4",
".L c #141e1c",
".M c #344244",
".N c #cccac4",
".O c #444a4c",
".P c #3c4254",
".Q c #a49a94",
".R c #948a84",
".S c #1c1a0c",
".T c #dcda04",
".U c #847a74",
".V c #b4aeac",
".W c #24221c",
".X c #44464c",
".Y c #ecea04",
".Z c #34363c",
".0 c #343e44",
".1 c #2c363c",
".2 c #2c3a3c",
".3 c #242e34",
".4 c #dcdedc",
".5 c #443e3c",
".6 c #34424c",
".7 c #0c0e04",
".8 c #ccca04",
".9 c #24363c",
"#. c #ccc6c4",
"## c #746a6c",
"#a c #948284",
"#b c #ece6e4",
"#c c #acaaac",
"#d c #44463c",
"#e c #342e2c",
"#f c #c4b2ac",
"#g c #1c2e24",
"#h c #3c463c",
"#i c #ccded4",
"#j c #fcf6f4",
"#k c #34362c",
"#l c #343e34",
"#m c #2c362c",
"#n c #fcfa04",
"#o c #f4eeec",
"#p c #c4bebc",
"#q c #2c3e3c",
"#r c #243634",
"#s c #c4c6c4",
"#t c #e4e6e4",
"#u c #2c2e2c",
"#v c #b4b6b4",
"#w c #d4d6d4",
"#x c #f4f6f4",
"#y c #a4928c",
"#z c #141a14",
"#A c #847274",
"#B c #b4a69c",
"#C c #4c4e4c",
"#D c #dcdad4",
"#E c #24262c",
"#F c #3c3e44",
"#G c #eceeec",
"#H c #bcbebc",
"#I c #34463c",
"#J c #cccecc",
"#K c #3c464c",
"#L c #fcfefc",
"#M c #1c1a1c",
"#N c #8c7e7c",
"#O c #bcaaa4",
"#P c #242624",
"#Q c #2c3e34",
"#R c #ac9e94",
"#S c #040604",
"#T c #2c4644",
"#U c #c4c604",
"#V c #1c2224",
"#W c #243234",
"#X c #c4c2c4",
"#Y c #5c6254",
"#Z c #aca29c",
"#0 c #9c8e8c",
"#1 c #7c6e6c",
"#2 c #4c4a44",
"#3 c #1c1e1c",
"#4 c #e4dedc",
"#5 c #3c3a3c",
"#6 c #5c6a64",
"#7 c #a49694",
"#8 c #e4e604",
"#9 c #3c524c",
"a. c #ecee6c",
"a# c #d4d604",
"aa c #f4f604",
"ab c #dcde04",
"ac c #ecee04",
"ad c #ccce04",
"ae c #948684",
"af c #acaeac",
"ag c #fcfe04",
"ah c #847674",
"ai c #bcaea4",
"aj c #8c8284",
"ak c #e4e2e4",
"al c #444244",
"am c #2c2a34",
"an c #b4b2b4",
"ao c #1c2a2c",
"ap c #3c4244",
"aq c #d4d2d4",
"ar c #f4f2f4",
"as c #343234",
"at c #343a3c",
"au c #2c3234",
"av c #242a2c",
"aw c #3c4a4c",
"ax c #1c2634",
"ay c #3c3e3c",
"az c #eceaec",
"aA c #bcbabc",
"aB c #cccacc",
"aC c #fcfafc",
"aD c #1c1a14",
"aE c #847a7c",
"aF c #242224",
"aG c #2c3a44",
"aH c #443e44",
"aI c #0c0e0c",
"aJ c #444644",
"aK c #2c3a34",
"aL c #1c2e2c",
"aM c #3c4644",
"aN c #343634",
"aO c #343e3c",
"aP c #2c3634",
"aQ c #242e2c",
"aR c #2c3e44",
"aS c #b4a6a4",
"aT c #dcdadc",
"aU c #344644",
"aV c #ac9e9c",
/* pixels */
"................................................",
"....#6#6#6#6#O##########.y#N.R#B#Oai#Y#6.taN#3..",
"....aMaR.pav#O###1#####1#NaeaIaI#P#Z.Balal.paw.v",
"....at.M#I#E#O#####1#A#N#R#O.7aQ#u#a#u#r.tat.0#3",
"....#d.MaJ.H#O#####A.U.RaS#faI#uaQaE.3#Wat.2aO.L",
"....#K#Tapav#O#Aahae#0.zaV#yaI.B#u##aQat.ZaPaP#3",
".....IaR.paQ#O#0#y#O#f#RaE.y.7aQ.m##aLayataOaR#3",
"....#F.2alavai#7.Q#f#O.u.y#1aI.m.o#1av.2at#r#5#3",
".....P#q.1#P#O#Bai#Z.Q#a#1#####1###1.B.2.1.9aN.L",
".....MaMaUaM.Zatat.1at.Zat.0#qaOaO#5.t.2aGaK.t#3",
"....#I#I.A.naw.F#h.j.0.Map#h.0.0ay.0at.Zat.ZaN#3",
".....6aRay.d.7aI.7.7aI.7aIaIaIaIaI.7aI.7ataPaK.L",
".....pat#q#L#L#L#L#jar#G#b#t.4.Gaq#J#X#paIamau#3",
"....#laK#F#L#L..#S#S..#S#S....#S....#X#H.7#u.1#3",
"....#l.2at#L#LaC#j#o#Gazak#4aTaq#J.N#HaAaI#WaP#z",
"....#l.2ayaC#x..#S#S..............#SaA#v.7.B#W#M",
".....2aNaO#x.rar#G#t#takaT#waq#J#s#X.K#vaIaNau#z",
"....au.1#Far#Gaz.Jak.haT#w#w#J#.#X#H#v.VaIaPaP#z",
"...v.1.2.0az#t#tak.4#D#w#J#J#.#H#H.KafafaIaP#WaD",
"...vataP.5.Jakak.4aT#waq#JaB#s#HaA#vaf#caI#r#u#z",
"...vataGaOak.4.4#Daqaq#J#s#s#XaA.K.V#c.i.7#g.Z.v",
"...v#3.Z#Qa.agagagagagaaacac#8.Ta#.x#U.aaI#Y#i#3",
"...v.E.2.C.wagagag#n#n.Dac.Y.laba#.x.a.aaIax#e#z",
"...v.M.E.Wa.agagagaa.Dac.Y.l.la#.xad.a.##Mau.Z#3"
};
