/* XPM */
static char*new[]={
"24 24 6 1",
". c None",
"a c #c0c0c0",
"# c #000000",
"c c #d5d5d5",
"d c #eaeaea",
"b c #ffffff",
"........................",
"........................",
"...........#########....",
".........###aabbbb##....",
".........###aabbbb##....",
"........#aa#ccbbbb##....",
"......##abb#ddbbbb##....",
"......##abb#ddbbbb##....",
".....#######bbbbbb##....",
".....#aacddbbbbbbb##....",
".....#aacddbbbbbbb##....",
".....#bbbbbbbbbbbb##....",
".....#bbbbbbbbbbbb##....",
".....#bbbbbbbbbbbb##....",
".....#bbbbbbbbbbbb##....",
".....#bbbbbbbbbbbb##....",
".....#bbbbbbbbbbbb##....",
".....#bbbbbbbbbbbb##....",
".....#bbbbbbbbbbbb##....",
".....#bbbbbbbbbbbb##....",
".....#bbbbbbbbbbbb##....",
".....###############....",
".....###############....",
"........................"};
