/* XPM */
static char*prm_lght[]={
"32 24 17 1",
"m c #aa6daa",
"l c #554800",
". c None",
"g c #aa9155",
"# c #d4daaa",
"h c #554855",
"k c #7f91aa",
"c c #ffdaaa",
"d c #aa91aa",
"b c #ffdaff",
"o c #2a2400",
"j c #556d55",
"n c #552400",
"f c #7f6d55",
"e c #aab6aa",
"a c #d4b6aa",
"i c #7f6daa",
"................................",
"................................",
".............#ababc.............",
"...........dedadaaacc...........",
"..........fdfdgagaacab..........",
".........effffdaaaaacca.........",
".........dhifdg#acabcba.........",
".........ffffgdaaaaacca.........",
".........ijfhdfagagcabg.........",
"..........ffffffdgdaaad.........",
"..........fkhflffffagd..........",
"...........ffhfhhfffg...........",
"............fihflfhmf...........",
"............kffhhhfga...........",
"............fflfhffa............",
".............ffhffdg............",
"..............jflff.............",
"..............lnhnn.............",
"..............ohnhn.............",
"..............nnln..............",
"..............nhnhn.............",
"...............nhn..............",
"................................",
"................................"};
