/* XPM */
static char*prm_ttxt[]={
"32 24 21 1",
"o c #aa6daa",
"l c #ff6d55",
". c None",
"q c #d46daa",
"m c #aa9155",
"h c #aa4800",
"c c #d49155",
"i c #aa91aa",
"s c #d4daff",
"# c #ff9155",
"j c #aa4855",
"g c #d491aa",
"a c #ff91aa",
"p c #aa48aa",
"n c #7f6d55",
"r c #aab6aa",
"f c #d46d00",
"k c #aa6d55",
"d c #d4b6aa",
"e c #d46d55",
"b c #ffb6aa",
"................................",
"................................",
"................................",
"................................",
"......#a.....b#.................",
".....c##d....c#.................",
".....efac....gh.................",
"....ijje#g...kki##a.....g###d...",
"....kekela...gheea#bc..gea#b#d..",
"....kk.jlld..kje#e###.ikel#c#cd.",
"....hcceh#e..mhehkhee.nkjkhehei.",
"...oj###je#g.kjji.ije.ijjk.ikji.",
"...oha#ahela.ghg...kh.nkk...kcm.",
"..dpjhjjkhe#dkj#bgcjj.ijcgdee#..",
"..iqmikgkkhaciha#aekh.meeb##jam.",
"..rod...dije#mje##ejj..he##ekjg.",
".#ig.....skecghee#hkk..ch#elhe..",
"..r.......ikgmjikjkid...mjjjm...",
"................................",
"................................",
"................................",
"................................",
"................................",
"................................"};
