/* XPM */
static char*prm_plne[]={
"32 24 26 1",
"b c #ac744f",
"s c #d68930",
"v c #ac958e",
"o c #93672d",
". c None",
"w c #efc894",
"q c #b36711",
"r c #b3874d",
"c c #b27331",
"a c #ecb16f",
"m c #ce924e",
"# c #d4cdb6",
"i c #924e09",
"h c #8c5926",
"f c #c9b4ad",
"p c #b1aa94",
"t c #d2a774",
"g c #928875",
"u c #e7b58f",
"l c #ac5905",
"e c #e9cbac",
"x c #ed9a47",
"k c #b3aead",
"d c #d4af8e",
"j c #906f50",
"n c #8d766c",
"................................",
"................................",
"................................",
"................................",
"................................",
"................................",
"................................",
"..........##abcade..............",
"..........fghhiijjkf............",
"......##abliiiliiillcmde##......",
"......fnhhiiiillillliiojpf......",
"..##abliiillllllllllllllllcmde..",
"..fnhiiiiillllllllllllllllqqge..",
"..pnhhiilllllllllllllllllqjd....",
"..##arcilllllllllllllqlqqsde....",
".......krjiilllllllqqqcck.......",
"........edtcqlllllqqqqmu........",
"............fvboqqqqgf..........",
"............##wdscqx#e..........",
"..................#.............",
"................................",
"................................",
"................................",
"................................"};
