/* XPM */
static char*prm_cone[]={
"32 24 40 1",
"G c #d68930",
". c None",
"s c #6b3807",
"A c #b36711",
"y c #efc894",
"l c #6f5030",
"x c #b3874d",
"B c #d06f08",
"E c #73450e",
"t c #e97905",
"b c #b27331",
"g c #ecb16f",
"z c #726756",
"K c #c67b2e",
"k c #291605",
"f c #ce924e",
"v c #913109",
"d c #d4cdb6",
"p c #924e09",
"j c #f88b11",
"r c #514532",
"m c #b1aa94",
"C c #b18e70",
"J c #d2a774",
"H c #ea9439",
"o c #4d1704",
"w c #ac5905",
"D c #e9cbac",
"n c #6d5749",
"q c #ed9a47",
"# c #b3aead",
"F c #d4af8e",
"u c #352612",
"e c #493a2e",
"a c #898887",
"h c #906f50",
"i c #532e09",
"I c #cb9170",
"c c #f6ca6c",
"L c #fbaf4b",
"................................",
"................................",
"................................",
"................................",
"................#...............",
"...............abc..............",
"..............defg..............",
"..............hijjdd............",
".............#kljjmd............",
".............nopjjfc............",
"............mkipjjfq............",
"............rksptjjjd...........",
"...........akksptjjjm...........",
"..........dukivwtjjjxy..........",
"..........zkkipwtjjjff..........",
".........#ukoipwtjjjjt..........",
".........zkkispABjjjjtm.........",
".........rkkispwBjjjjtCD........",
".........akkiEpABjjjjtFD........",
"..........ariEpABGHHIJ..........",
"...........dJxbKGHHLyy..........",
"................................",
"................................",
"................................"};
