/* XPM */
static char*prm_toru[]={
"32 24 41 1",
"M c #ac958e",
"k c #93672d",
". c None",
"J c #52514f",
"w c #6b3807",
"g c #efc894",
"c c #b36711",
"q c #6f5030",
"o c #d06f08",
"t c #73450e",
"m c #e97905",
"f c #b27331",
"H c #ecb16f",
"v c #726756",
"l c #c67b2e",
"B c #291605",
"E c #ce924e",
"x c #913109",
"h c #d4cdb6",
"p c #924e09",
"G c #070401",
"n c #f88b11",
"j c #8c5926",
"u c #c9b4ad",
"s c #b1aa94",
"b c #b18e70",
"F c #d2a774",
"C c #ea9439",
"D c #4d1704",
"i c #928875",
"d c #ac5905",
"L c #6d5749",
"# c #b3aead",
"a c #d4af8e",
"e c #c65a03",
"z c #352612",
"K c #493a2e",
"r c #906f50",
"A c #532e09",
"I c #33302c",
"y c #8d766c",
"................................",
"................................",
"................................",
"................................",
"................................",
"...........#########............",
"........abcddeeeddddffag........",
"......hijkclmnnnoocdppqrs.......",
".....hptdomnnnnnoodpttpppfuh....",
".....vwpconnnnnmodpxwwwtppyh....",
"....szAtdcooffjqqAAABBAwpdcC....",
"....izDApdoocEFFFFqABBAtdcol....",
"....iGBzAtpffHFFFFFHfpdommmo....",
"....sGGBAAwpppjjjjkkffmnnnno....",
".....IGGBzAtppdcooomnnnnnnfE....",
".....#zGGBAAwpdcoomnnnnnnmfH....",
"......#IGGBzAwppdcooooookk#.....",
".......uiIGBBAwwppddddddfH......",
"..........sJKIBBzzAALLs#........",
".............#MMMMMMhh..........",
"................................",
"................................",
"................................",
"................................"};
