/* XPM */
static char*prm_sphr[]={
"32 24 45 1",
"E c #ac744f",
"s c #ac958e",
". c None",
"L c #52514f",
"h c #6b3807",
"B c #efc894",
"p c #b36711",
"P c #6f5030",
"D c #b3874d",
"r c #d06f08",
"o c #73450e",
"t c #e97905",
"N c #b9ccd4",
"k c #b27331",
"l c #ecb16f",
"e c #726756",
"u c #c67b2e",
"n c #291605",
"F c #913109",
"# c #d4cdb6",
"i c #924e09",
"z c #070401",
"w c #f88b11",
"K c #8c5926",
"Q c #c9b4ad",
"v c #514532",
"f c #b1aa94",
"A c #b18e70",
"C c #676666",
"q c #4d1704",
"H c #928875",
"M c #e7b58f",
"j c #ac5905",
"a c #e9cbac",
"d c #6d5749",
"b c #b3aead",
"x c #d4af8e",
"J c #c65a03",
"m c #352612",
"O c #493a2e",
"y c #898887",
"G c #906f50",
"g c #532e09",
"I c #33302c",
"c c #8d766c",
"................................",
"................................",
"..............##aa##............",
"............bcddeeef............",
"..........#cggghiiijkl..........",
"..........dmnghoiijpkkb.........",
"........#dmnqghijprrrrkl........",
"........smnnggiijrrtttuu........",
"........vnnnghiirrtwwwwtx#......",
"........nnnnghijrrwwwwwts#......",
".......ynzznghijrrwwwwwwAB......",
".......CzzznghijrrwwwwwwDB......",
".......CzzznggiiprwwwwwtEa......",
".......CzzznggFijrtwwwttGa......",
".......bzzzznghijprrttrrH#......",
"........IzzznghhijJrrrrjf#......",
"........yzzznnghoijjjjKk........",
".........LzzznqghoiijiiM........",
".........NOzzznmgghhoPb.........",
"..........QCnzznngggPx..........",
"............bCOOOvLf............",
"................................",
"................................",
"................................"};
