/* XPM */
static char*prm_cube[]={
"32 24 41 1",
"F c #ac744f",
"D c #d68930",
"H c #ac958e",
"K c #93672d",
". c None",
"h c #6b3807",
"E c #efc894",
"C c #b36711",
"d c #6f5030",
"G c #b3874d",
"x c #d06f08",
"i c #73450e",
"A c #e97905",
"t c #b27331",
"u c #ecb16f",
"p c #726756",
"v c #291605",
"M c #ce924e",
"r c #913109",
"a c #d4cdb6",
"w c #924e09",
"z c #070401",
"j c #8c5926",
"e c #514532",
"J c #b1aa94",
"k c #b18e70",
"g c #d2a774",
"L c #676666",
"m c #928875",
"B c #e7b58f",
"s c #ac5905",
"l c #e9cbac",
"f c #6d5749",
"I c #ed9a47",
"b c #b3aead",
"# c #d4af8e",
"y c #352612",
"o c #493a2e",
"n c #532e09",
"q c #33302c",
"c c #8d766c",
"................................",
"................................",
"..............##aa..............",
"............bcdefcba............",
"........aagdhhhhhhhijk#l........",
".......bmfnnhhhhhhhhhhopca......",
".......qnnnnhhhhhhhhhhrstu......",
".......vvvvnnhhhhhhhhwxxtu......",
".......yzzzzzvnniirsxAAxtB......",
".......yzzzzzzvvvnCDAAAxtE......",
".......yzzzzzzzzzvAAAAxxFE......",
".......yzzzzzzzzzvAAAAxxFE......",
".......qzzzzzzzzvvAAxxxxGl......",
".......qzzzzzzzzzyAAxxxxkl......",
".......qzzzzzzzzvnxxxxxskl......",
".......qzzzzzzzzvnxxxxsskl......",
".......qzzzzzzzzvnxxxCssH.......",
".......qzzzzzzzzvnxxCssCa.......",
".......bfyzzzzzzvnxCCsHa........",
".........bmozzzzvnssCI.a........",
"............JevzvnKFa...........",
"..............bLndME............",
"................ab..............",
"................................"};
