/* XPM */
static char*prm_cyln[]={
"32 24 39 1",
"o c #d68930",
"d c #ac958e",
"D c #93672d",
". c None",
"j c #6b3807",
"E c #efc894",
"q c #b36711",
"f c #6f5030",
"w c #d06f08",
"I c #73450e",
"x c #e97905",
"r c #b27331",
"B c #ecb16f",
"e c #726756",
"y c #c67b2e",
"p c #291605",
"s c #ce924e",
"c c #d4cdb6",
"n c #924e09",
"t c #070401",
"K c #8c5926",
"# c #c9b4ad",
"k c #514532",
"a c #b1aa94",
"H c #b18e70",
"G c #676666",
"u c #ac5905",
"F c #e9cbac",
"h c #6d5749",
"z c #ed9a47",
"J c #b3aead",
"b c #d4af8e",
"v c #c65a03",
"C c #352612",
"l c #906f50",
"g c #532e09",
"A c #fbaf4b",
"m c #33302c",
"i c #8d766c",
"................................",
"................................",
"............#abbbbac............",
"..........defgggggghea..........",
"........cijjjjjjjjjjjjfb........",
"........ckjjjjjjjjjjjjgl........",
".........mggjjjjjjjjjjno........",
".........mppggjjjjjnnqrs........",
".........mtttpgjnuvwxxyz........",
".........mtttpgjnuwwxxyz........",
".........mtttpgjnuwwxxrA........",
".........mtttpgjnuwwxxrB........",
".........mtttpgjnuwwwwrB........",
".........mtttpgjnuwwwwrB........",
".........ptttCgjnuqwwwDE........",
".........ptttpgjnnuwwwDE........",
".........pttppgjnnuqwwlF........",
".........pttppgjnnuqwwlF........",
".........mttppgjnnuqwulF........",
".........GttppgjnnuuuuHF........",
"..........GmtpgjInnulH..........",
"...........JdhfKDrrsbF..........",
"................................",
"................................"};
