/* XPM */
static char*prm_cam[]={
"32 24 19 1",
"e c #554800",
"a c #7f9155",
"o c #2a4855",
". c None",
"f c #aa9155",
"l c #d4daaa",
"b c #554855",
"d c #7f91aa",
"k c #ffdaaa",
"j c #aa91aa",
"p c #000000",
"m c #2a2400",
"c c #556d55",
"# c #7f6d55",
"q c #2a2455",
"i c #aab6aa",
"h c #d4b6aa",
"g c #7f6daa",
"n c #2a4800",
"................................",
"................................",
"..............#.................",
"....a###...#bbcb#...............",
"...de#e#b.##e#e#e#f.............",
"...b#bbb#c#b#bbb#bf.............",
"..agb#e#b#e#b#e#b#bh............",
".ijbc##bcbcbbbcbbbcf............",
"..dg#hhhfj##e#e#e#ejj...........",
"...##ffjhfhhhff##bbfh...........",
"....#j#jfjfhfhfhhhfkhh..........",
".....#faffjfjfjfijhhlhh.........",
"....ad#j#j#jajfifhfkhh..........",
".....#######jaffjfihj#..........",
"....a#e#c#cd#a#j#jfjmbn#b#bbmo..",
".....b#b#c########jbmpmpmmmpom..",
"....a#e#e#b#e#b#b##bpqpqpqpqmq..",
".....bbbbbbb#bcc#ba#bmmpmpppqm..",
".......gbbe#ece#b##i#.bbmqpqmb..",
"...........#bbbbbb#af...dbmpm...",
"..............#gebbj.......qm...",
"................................",
"................................",
"................................"};
