/* XPM */
static char * right_arrow_xpm[] = {
"16 16 4 1",
" 	c None",
".	c #FFFFFF",
"+	c #FEFEFE",
"@	c #000000",
"                ",
"                ",
"  .+            ",
"  . .           ",
"  .  ..         ",
"  .    ...      ",
"  .       +     ",
"  .        @@   ",
"  .       @     ",
"  .    @@@      ",
"  .  @@         ",
"  . @           ",
"  @@            ",
"                ",
"                ",
"                "};
