/* XPM */
static char*save[]={
"24 24 16 1",
"n c #dedeff",
"g c #004aff",
". c None",
"e c #204aff",
"j c #0020ff",
"k c #ffffac",
"h c #004aac",
"i c #b4b4ac",
"c c #0094ff",
"m c #0020ac",
"d c #006aff",
"# c #000000",
"f c #006aac",
"a c #00b4ff",
"l c #deffff",
"b c #ffffff",
"........................",
"........................",
"........................",
"...##################...",
"...##################...",
"...##a##bbbbbbbbb#cc#...",
"...##c##b######bb#cc#...",
"...##c##b######bb#cc#...",
"...##d##b###bbbbb#dd#...",
"...##d##bbbbbbbbb#dd#...",
"...##d##bbbbbbbbb#dd#...",
"...##d############dd#...",
"...##deefddeffgffedd#...",
"...##deefddeffgffedd#...",
"...##dee#########ghh#...",
"...##egg#iijkkl##ghh#...",
"...##egg#iijkkl##ghh#...",
"...##ejj#iijkkl##jhh#...",
"...##jmm#iiinnb##jmm#...",
"...##jmm#iiinnb##jmm#...",
".....################...",
"........................",
"........................",
"........................"};
