/* XPM */
static char * tritex_xpm[] = {
"16 16 18 1",
" 	c None",
".	c #000000",
"+	c #D91717",
"@	c #B81414",
"#	c #FF1C1C",
"$	c #D41717",
"%	c #BF1515",
"&	c #AB1212",
"*	c #961010",
"=	c #DB1818",
"-	c #C71515",
";	c #B21313",
">	c #E31818",
",	c #CE1616",
"'	c #BA1414",
")	c #D61717",
"!	c #DD1818",
"~	c #FF1B1B",
"                ",
" ...            ",
" .+..  ...      ",
" ...@...#.      ",
"  .$%&*...      ",
"  .=-;.         ",
"  .>,'.         ",
"   .).    . .   ",
"   .!.   .. ..  ",
"  ...   ... ... ",
"  .~.           ",
"  ...   ... ... ",
"         .. ..  ",
"          . .   ",
"                ",
"                "};
