/* XPM */
static char *viewpoint[] = {
/* width height num_colors chars_per_pixel */
"    32    24      161            2",
/* colors */
".. c #b2c0dc",
".# c #2a4cb6",
".a c #0028ad",
".b c #415bbf",
".c c #5f76c6",
".d c #2943b3",
".e c #7e8dce",
".f c #6577c6",
".g c #0020a6",
".h c #5568c1",
".i c #394cb8",
".j c #7b89d2",
".k c #2640b2",
".l c #1f52bb",
".m c #5a75c1",
".n c #1638ae",
".o c #1133ad",
".p c #0d33a9",
".q c #2e4fb4",
".r c #0a2daa",
".s c #6980c8",
".t c #5072c2",
".u c #4e64c4",
".v c #567dca",
".w c #3157b7",
".x c #5675c5",
".y c #4c69c0",
".z c #002ca8",
".A c #002da7",
".B c #6f88ce",
".C c #637fca",
".D c #4a6bc0",
".E c #003aad",
".F c #0034a9",
".G c #002aaa",
".H c #003eb2",
".I c #3e69ca",
".J c #244bba",
".K c #3e5fc0",
".L c #5070cc",
".M c #2d51bb",
".N c #244bb8",
".O c #0030ae",
".P c #1440b4",
".Q c #8ba2de",
".R c #587cd1",
".S c #5476cf",
".T c #1043ba",
".U c #1c4fc1",
".V c #2453c0",
".W c #023ab7",
".X c #023ebb",
".Y c #2e5bc3",
".Z c #0039b7",
".0 c #0a44bc",
".1 c #1546bb",
".2 c #003ab8",
".3 c #154abe",
".4 c #0e45ba",
".5 c #dad9e2",
".6 c #2c61c4",
".7 c #0038b6",
".8 c #003cba",
".9 c #2c5bc0",
"#. c #053db8",
"## c #0d47be",
"#a c #809adb",
"#b c #83a1dd",
"#c c #7097da",
"#d c #567ed1",
"#e c #1851c1",
"#f c #2a61c8",
"#g c #3669c7",
"#h c #0042bc",
"#i c #6289d5",
"#j c #4e7fd1",
"#k c #0045bd",
"#l c #124dbf",
"#m c #245ac3",
"#n c #0046bd",
"#o c #186dcb",
"#p c #86a2d8",
"#q c #3d70cc",
"#r c #82a8d8",
"#s c #88abe0",
"#t c #4e80d4",
"#u c #2666c3",
"#v c #4278d1",
"#w c #034abe",
"#x c #6b97d2",
"#y c #77a0dc",
"#z c #7ca3db",
"#A c #0049bb",
"#B c #004cbe",
"#C c #004bb9",
"#D c #0048bd",
"#E c #004bbe",
"#F c #105ebe",
"#G c #6593d3",
"#H c #598ed5",
"#I c #2a6dca",
"#J c #0c58c8",
"#K c #0054be",
"#L c #6294d7",
"#M c #4e85d5",
"#N c #0051c2",
"#O c #1261c3",
"#P c #2467cd",
"#Q c #0052bf",
"#R c #246ac8",
"#S c #1c62cc",
"#T c #568cd1",
"#U c #0055be",
"#V c #658ad1",
"#W c #1e64c9",
"#X c #6b9fda",
"#Y c #0862c9",
"#Z c #5894d4",
"#0 c #045fc4",
"#1 c #619bd5",
"#2 c #186bcb",
"#3 c #045ec3",
"#4 c #1867cb",
"#5 c #0c64ca",
"#6 c #045cc4",
"#7 c #2c76c9",
"#8 c #025ec7",
"#9 c #6998ce",
"a. c #277cd1",
"a# c #1a72cc",
"aa c #5c9bdb",
"ab c #6296da",
"ac c #2478cc",
"ad c #5597d5",
"ae c #5993dc",
"af c #3684d0",
"ag c #4789d8",
"ah c #5096d7",
"ai c #2a75ca",
"aj c #3188d8",
"ak c #569ddf",
"al c #237ed2",
"am c #559ddb",
"an c #569cdb",
"ao c #3388d6",
"ap c #227ed4",
"aq c #4392d8",
"ar c #4c96d9",
"as c #287bcf",
"at c #51a8e2",
"au c #7cb4e6",
"av c #6dace4",
"aw c #1980d2",
"ax c #2e8dd7",
"ay c #1e89d6",
"az c #1384d5",
"aA c #3483d1",
"aB c #3482d1",
"aC c #adcbe7",
"aD c #98bfe3",
"aE c #7ec0eb",
/* pixels */
".............................#.a...b............................",
".............................#.a...b............................",
".................c.....d.e.e.f.g.h.i.j.......k..................",
".........l.......m.n.o.p.q.q.r.s.t...........u..................",
".........l.......m.n.o.p.q.q.r.s.t...........u..................",
".........v.w.x.x.y.z.A.B.C.C.w.D.B.E.F.G.G.H.w..................",
".........I.J.K.K.L.M.N.O.O.O.O.O.O.O.O.O.O.O.O.O.P..............",
".........I.J.K.K.L.M.N.O.O.O.O.O.O.O.O.O.O.O.O.O.P..............",
".....Q.R.S.T.U.U.V.W.X.Y.Z.Z.0.1.2.3.4.5.5.6.7.8.9#.#.###a......",
"....#b#c#d#e#f#f#g#h#i#j#k#k#l#m#n#m#o.5.5.5.5.5.5.5.5#p#q......",
"....#b#c#d#e#f#f#g#h#i#j#k#k#l#m#n#m#o.5.5.5.5.5.5.5.5#p#q......",
"....#r#s#t#u#v#v#w#x#y#z#A#A#B#C#D#E#F.5.5.5.5#G.5.5.5.5.5.5#G..",
"......#H#I#J#K#K#L.5.5#M#N#N#O#P#Q#R#S.5.5.5#T#U.5.5.5.5.5.5#V#W",
"......#H#I#J#K#K#L.5.5#M#N#N#O#P#Q#R#S.5.5.5#T#U.5.5.5.5.5.5#V#W",
"........#X#Y#Z#Z.5.5.5.5#0#0#1#2#3#4#5#6#6#7#8#9.5.5.5.5.5.5.5.5",
"........a.a#aaaa.5.5.5.5ababacadaeafacagagahai.5.5.5.5.5.5.5.5.5",
"........a.a#aaaa.5.5.5.5ababacadaeafacagagahai.5.5.5.5.5.5.5.5.5",
"..........ajakak.5.5.5.5.5.5alamanaoapaqaqaras.5.5.5.5.5.5.5.5.5",
"..........atauauav.5.5.5.5.5.5awaxayazaAaAaB.5.5.5.5.5.5.5.5.5.5",
"..........atauauav.5.5.5.5.5.5awaxayazaAaAaB.5.5.5.5.5.5.5.5.5.5",
"...........5.5.5.5.5.5.5.5.5.5.5.5aCaD.5.5.5.5.5.5.5.5.5.5.5....",
"..........aE.5.5.5.5.5.5.5.5.5.5.5.5.5.5.5.5.5.5.5.5.5.5.5......",
"..........aE.5.5.5.5.5.5.5.5.5.5.5.5.5.5.5.5.5.5.5.5.5.5.5......",
"............aEaE.5.5.5.5.5.5.5.5.5.5.5.5.5.5.5.5.5.5.5.5........"
};
